<svg xmlns="http://www.w3.org/2000/svg" fill="none" viewBox="0 0 60 61" height="61" width="60">
<path stroke-linejoin="round" stroke-linecap="round" stroke-width="4" stroke="#00A77F" d="M12.4995 30.8945C12.4995 21.2295 20.3345 13.3945 29.9995 13.3945M41.2493 19.6445L29.9993 30.8945M54.9995 30.8945C54.9995 44.7017 43.8066 55.8945 29.9995 55.8945C16.1924 55.8945 4.99951 44.7017 4.99951 30.8945C4.99951 17.0874 16.1924 5.89453 29.9995 5.89453C43.8066 5.89453 54.9995 17.0874 54.9995 30.8945ZM32.4995 30.8945C32.4995 32.2752 31.3802 33.3945 29.9995 33.3945C28.6188 33.3945 27.4995 32.2752 27.4995 30.8945C27.4995 29.5138 28.6188 28.3945 29.9995 28.3945C31.3802 28.3945 32.4995 29.5138 32.4995 30.8945Z"></path>
</svg>
